<?xml version="1.0" encoding="UTF-8"?>
<!DOCTYPE svg PUBLIC "-//W3C//DTD SVG 1.1//EN" "http://www.w3.org/Graphics/SVG/1.1/DTD/svg11.dtd">
<svg width="1999.37" height="375.96" xmlns:xlink="http://www.w3.org/1999/xlink" xmlns="http://www.w3.org/2000/svg"><defs><path d="M113.309.511c4.431 0 9.58.25 15.462.732a297.209 297.209 0 0 1 17.667 1.864 243.696 243.696 0 0 1 17.122 2.804c3.341.67 6.157 1.276 8.698 1.885a147.508 147.508 0 0 0-11.428 8.854c-11.01 9.456-20.36 20.804-28.046 33.93-7.481-.838-15.421-1.423-24.455-1.423-7.354 0-15.167.626-23.447 1.86-8.276 1.256-14.093 2.323-17.392 3.267v199.43H.683V17.361c12.875-4.063 28.968-7.873 48.299-11.45C68.309 2.31 89.76.511 113.309.511z" id="a"/><path id="c" d="M209.752 47.642H140.15v287.615H70.026V47.642H.383V.419h209.369z"/><path d="M118.697.512c23.553 0 43.257 2.718 59.076 8.184 15.818 5.461 28.426 14.081 37.814 22.921 9.391 9.794 16.031 21.662 19.876 35.516 3.865 13.879 5.796 29.094 5.796 45.609v142.837c-.651.082-1.344.126-2.016.191-18.57 1.902-36.343 1.943-47.037-1.594-4.182-1.422-7.268-3.409-9.391-6.07-2.669-3.348-4.682-8.16-6.03-14.255-1.365-6.238-2.038-14.107-2.308-22.773v-89.481c0-13.061-1.033-24.197-3.05-33.403-2.013-9.19-5.333-16.663-9.936-22.442-4.62-5.773-10.862-9.983-18.782-12.641-7.919-2.64-17.561-3.953-28.989-3.953-8.448 0-17.29.455-26.472 1.378-9.223.94-16.028 1.737-20.442 2.363v143.527H-.001V13.614c12.879-3.119 29.624-6.091 50.251-8.899C70.84 1.934 93.655.512 118.697.512z" id="e"/><path d="M134.94.513c39.749 0 70.755 10.441 93.046 31.334 22.246 20.886 33.383 52.035 33.383 93.499 0 3.119-.107 6.635-.275 10.506a158.713 158.713 0 0 1-.84 10.527H69.794c1.824 19.634 10.018 34.833 24.578 45.589 14.515 10.762 35.588 16.118 63.192 16.118 16.199 0 31.009-1.214 44.454-3.728 13.425-2.486 24.013-5.147 31.744-7.951l8.825 46.3c-3.677 1.549-8.74 3.204-15.167 4.897-6.472 1.738-13.826 3.287-22.082 4.689-8.296 1.402-17.224 2.575-26.783 3.516-9.563.923-19.331 1.381-29.267 1.381-25.399 0-47.476-3.18-66.238-9.586-18.782-6.385-34.247-15.28-46.368-26.645-12.162-11.385-21.197-24.764-27.079-40.209C3.721 165.322.778 148.411.778 130.014c0-21.498 3.783-40.359 11.325-56.58 7.522-16.18 17.585-29.679 30.084-40.438 12.522-10.76 26.869-18.858 43.068-24.323 16.176-5.421 32.752-8.16 49.685-8.16zm.566 47.196c-10.317 0-19.327 1.655-27.079 4.921-7.71 3.287-14.244 7.579-19.58 12.873-5.334 5.315-9.474 11.365-12.437 18.232-2.963 6.864-4.977 13.875-6.05 21.033h124.202c0-7.784-1.303-15.175-3.865-22.206-2.583-7.015-6.346-13.102-11.326-18.253-4.956-5.106-11.03-9.169-18.192-12.141-7.186-2.972-15.757-4.459-25.673-4.459z" id="g"/><path d="M134.879.513c39.748 0 70.758 10.441 93.045 31.334 22.246 20.886 33.383 52.035 33.383 93.499 0 3.119-.106 6.635-.275 10.506a158.713 158.713 0 0 1-.84 10.527H69.732c1.828 19.634 10.018 34.833 24.578 45.589 14.515 10.762 35.589 16.118 63.196 16.118 16.195 0 31.005-1.214 44.451-3.728 13.424-2.486 24.012-5.147 31.746-7.951l8.822 46.3c-3.677 1.549-8.739 3.204-15.167 4.897-6.472 1.738-13.826 3.287-22.081 4.689-8.297 1.402-17.225 2.575-26.784 3.516-9.559.923-19.327 1.381-29.267 1.381-25.398 0-47.476-3.18-66.238-9.586-18.782-6.385-34.243-15.28-46.365-26.645-12.165-11.385-21.2-24.764-27.082-40.209C3.659 165.322.716 148.411.716 130.014c0-21.498 3.783-40.359 11.326-56.58 7.521-16.18 17.584-29.679 30.083-40.438 12.522-10.76 26.869-18.858 43.069-24.323 16.175-5.421 32.751-8.16 49.685-8.16zm.566 47.196c-10.314 0-19.328 1.655-27.079 4.921-7.71 3.287-14.244 7.579-19.581 12.873-5.334 5.315-9.474 11.365-12.437 18.232-2.963 6.864-4.977 13.875-6.05 21.033H194.5c0-7.784-1.303-15.175-3.865-22.206-2.583-7.015-6.346-13.102-11.326-18.253-4.956-5.106-11.027-9.169-18.192-12.141-7.185-2.972-15.757-4.459-25.672-4.459z" id="i"/><path d="M67.497.418v80.65h69.476v47.22H67.497v105.726c0 19.631 3.677 33.68 11.031 42.073 7.35 8.413 19.893 12.619 37.56 12.619 7.567 0 14.392-.564 20.885-1.402v47.956c-9.117 1.234-18.782 2.069-29.706 2.069-20.631 0-37.838-2.323-51.64-7.011-13.802-4.669-24.767-11.447-32.834-20.325-8.112-8.896-13.823-19.652-17.122-32.275-3.32-12.623-4.98-27.045-4.98-43.222V18.797z" id="k"/><path d="M67.593.511v101.957a5132.55 5132.55 0 0 0 27.058-24.094c9.58-8.56 18.971-17.1 28.152-25.68 9.203-8.585 17.963-16.83 26.26-24.806 8.259-7.951 15.338-14.883 21.217-20.783h78.972c-18.363 17.456-37.752 35.517-58.129 54.21a2617.757 2617.757 0 0 1-61.408 54.734c11.03 7.767 22.561 17.206 34.686 28.26 12.162 11.07 23.885 22.835 35.273 35.332 11.404 12.435 22.057 24.907 31.932 37.384 9.936 12.472 18.212 24.029 24.811 34.576h-77.312c-6.596-9.624-14.224-19.778-22.877-30.39a438.898 438.898 0 0 0-27.899-30.852c-9.919-9.987-20.044-19.361-30.378-28.28-10.293-8.875-20.401-16.45-30.358-22.668v112.19H.807V18.931z" id="m"/><path d="M179.221 272.873a39.53 39.53 0 0 0 16.591 10.226L183.486 376l-46.331-75.808zm54.891 1.822 57.367 40.507-89.817 58.444-.22.141-.31.193-.18.11-.433.254-.191.107-.192.106-.381.204-.198.102a26.04 26.04 0 0 1-.672.329l-.211.097-.266.12 13.717-90.776a39.375 39.375 0 0 0 21.672-9.656zm-108.703 33.126 33.028 54.043-58.065-37.784zM18.466 132.837l99.642 163.039-30.571 19.853-62.957-40.966a24.977 24.977 0 0 1-11.29-19.079l-.022-.333-7.432-121.753c1.381.238 2.798.372 4.242.396l.454.003c2.758 0 5.422-.405 7.934-1.16zm331.719 29.004a27.427 27.427 0 0 0 18.489 7.131c.487 0 .97-.013 1.45-.038l-5.196 86.402a24.975 24.975 0 0 1-11.035 19.25l-.279.185-49.419 32.156-61.346-43.631a39.27 39.27 0 0 0 4.277-17.879 39.316 39.316 0 0 0-2.865-14.784zM34.568 132.335l136.81 97.303a39.306 39.306 0 0 0-3.283 15.779 39.304 39.304 0 0 0 3.312 15.844l-41.552 26.986zM191.12 27.283l151.685 104.836a27.41 27.41 0 0 0-1.642 9.373c0 3.013.486 5.913 1.383 8.625L236.79 218.8c-6.78-7.412-16.352-12.232-27.054-12.799L184.55 30.583a27.354 27.354 0 0 0 6.164-3.029zm-35.508-3.808a27.465 27.465 0 0 0 14.937 8.134l25.285 176.119a39.523 39.523 0 0 0-16.66 10.281L36.232 116.344a27.388 27.388 0 0 0 1.811-9.827c0-2.821-.425-5.543-1.216-8.105zM203.012.04l162.061 22.644c7.675 1.073 13.256 7.801 12.912 15.51l-.012.233-4.57 75.989a27.697 27.697 0 0 0-4.729-.404 27.425 27.425 0 0 0-17.894 6.606L200.332 16.637a27.356 27.356 0 0 0 2.777-12.046c0-1.55-.129-3.07-.376-4.551zm-54.915 3.779a27.511 27.511 0 0 0 .784 7.354L29.421 86.538a27.432 27.432 0 0 0-18.889-7.501 27.53 27.53 0 0 0-7.845 1.134l-.124-.204L.06 38.965v-2.8a15.002 15.002 0 0 1 12.638-13.447l.232-.034z" id="o"/></defs><g fill="none" fill-rule="evenodd"><g transform="translate(1313.94 97.96)"><mask id="b" fill="#fff"><use xlink:href="#a"/></mask><path fill="#199cd7" mask="url(#b)" d="M172.26.44H.66v253.32h171.6z"/></g><g transform="translate(1138.94 17.96)"><mask id="d" fill="#fff"><use xlink:href="#c"/></mask><path fill="#199cd7" mask="url(#d)" d="M209.86.4H.34v334.92h209.52z"/></g><g transform="translate(483.94 97.96)"><mask id="f" fill="#fff"><use xlink:href="#e"/></mask><path fill="#199cd7" mask="url(#f)" d="M241.34.44H-.1v256.68h241.44z"/></g><g transform="translate(1454.94 97.96)"><mask id="h" fill="#fff"><use xlink:href="#g"/></mask><path fill="#199cd7" mask="url(#h)" d="M261.42.44H.66v256.8h260.76z"/></g><g transform="translate(751.94 97.96)"><mask id="j" fill="#fff"><use xlink:href="#i"/></mask><path fill="#199cd7" mask="url(#j)" d="M261.34.44H.7v256.8h260.64z"/></g><g transform="translate(1039.94 17.96)"><mask id="l" fill="#fff"><use xlink:href="#k"/></mask><path fill="#199cd7" mask="url(#l)" d="M137.02.4H.58v336.96h136.44z"/></g><g transform="translate(1742.94 97.96)"><mask id="n" fill="#fff"><use xlink:href="#m"/></mask><path fill="#199cd7" mask="url(#n)" d="M256.5.44H.78v251.28H256.5z"/></g><g transform="translate(-.06 -.04)"><mask id="p" fill="#fff"><use xlink:href="#o"/></mask><path fill="#199cd7" mask="url(#p)" d="M378.06.04H.06V376h378z"/></g></g></svg>